<svg xmlns="http://www.w3.org/2000/svg" viewBox="0 0 48 48" width="48" height="48">
  <path fill="#000000" d="M 31.5 8 C 30.4 8 28.5 8.7 27 10 C 25.7 11.1 24.7 12.9 24.9 14.7 C 26.1 14.8 27.4 14.1 28.7 12.9 C 29.9 11.7 30.7 9.9 31.5 8 z M 33 16.3 C 30.5 16.3 28.9 17.7 27.5 17.7 C 26 17.7 24.3 16.4 22.2 16.4 C 18.9 16.4 15.5 18.6 13.9 22 C 11.5 27.2 13.3 35.1 16.8 39.5 C 18.3 41.5 20.1 43.7 22.4 43.7 C 24.4 43.7 25.1 42.5 27.6 42.5 C 30.1 42.5 30.7 43.7 32.8 43.7 C 35.1 43.7 36.7 41.7 38.2 39.7 C 39.9 37.5 40.7 35.4 40.7 35.3 C 40.7 35.2 36.3 33.6 36.3 28.7 C 36.3 24.5 39.6 22.6 39.8 22.5 C 37.8 19.6 34.9 19.3 34 19.2 C 33.7 19.2 33.3 16.3 33 16.3 z"/>
</svg>

