<svg xmlns="http://www.w3.org/2000/svg" viewBox="0 0 48 48" width="48" height="48">
  <path fill="#4285F4" d="M24 9.5c3.9 0 7.4 1.4 10.2 3.7l7.4-7.4C37.1 2.1 31 0 24 0 14.6 0 6.7 5.7 2.9 13.8l8.6 6.7C13.4 14.1 18.2 9.5 24 9.5z"/>
  <path fill="#34A853" d="M46.1 24.5c0-1.6-.1-3.1-.4-4.5H24v9h12.7c-.6 3.1-2.4 5.7-5 7.4l7.7 6c4.5-4.1 7.1-10.2 7.1-17.9z"/>
  <path fill="#FBBC05" d="M11.5 28.5c-1-3-1-6.2 0-9.2L2.9 12.6C.9 16.5 0 20.9 0 25.5s.9 9 2.9 12.9l8.6-6.7z"/>
  <path fill="#EA4335" d="M24 48c6.5 0 12-2.1 16-5.7l-7.7-6c-2.1 1.4-4.8 2.2-8.3 2.2-5.8 0-10.6-3.9-12.5-9.2l-8.6 6.7C6.7 43.3 14.6 48 24 48z"/>
</svg>

